<svg width="82" height="82" viewBox="0 0 82 82" fill="none" xmlns="http://www.w3.org/2000/svg">
<path d="M32.7203 59.0538L32.665 59.1824C36.4583 59.9151 40.5606 59.8067 44.6663 58.8069L45.3578 58.63C57.5545 55.3619 66.7644 42.5614 63.7218 31.1708C60.7905 21.5264 53.8916 16.8956 45.9071 19.035C41.5505 20.2024 38.0743 23.308 36.4315 27.3556M32.7203 59.0538L33.7196 56.5998L35.2045 52.7958M32.7203 59.0538L32.0806 60.5335L31.6957 61.3543C31.6575 61.4316 31.6208 61.5041 31.5857 61.572C30.6106 63.4557 28.2764 64.2177 26.3722 63.2739C24.468 62.3301 23.7149 60.0379 24.69 58.1542L24.9722 57.5658L25.343 56.7216L26.1469 54.7757M35.2045 52.7958L35.5416 51.9046C38.0116 52.1934 40.6759 51.9949 43.3843 51.2692C51.7178 49.0363 58.0976 40.1705 56.2636 33.296C54.4833 27.4431 51.4845 25.4302 47.8795 26.3961C46.0682 26.8815 44.6029 28.1034 43.8067 29.7212L43.6037 30.1853L37.3192 47.2183L35.2045 52.7958ZM36.4315 27.3556L36.6915 26.7556L36.7721 26.587C33.4178 24.2853 29.1601 23.5224 25.0834 24.6147C17.0989 26.7542 13.4397 34.214 15.7468 44.1155C17.399 49.7393 20.9046 53.9208 25.4249 56.5215L26.1469 54.7757M36.4315 27.3556L33.9203 34.1733L32.6534 33.1194L32.2455 32.819C30.7471 31.8161 28.8671 31.4905 27.0558 31.9758C23.4509 32.9418 21.8603 36.1844 23.245 42.1433C24.1385 45.1766 25.9297 47.5711 28.3062 49.2437L27.3956 51.6126M36.4315 27.3556L31.9105 39.6453L28.9237 47.6278L27.3956 51.6126M27.3956 51.6126L26.1469 54.7757M61.1594 46.5279L61.7358 46.9702L62.6817 47.6587L63.0176 47.8844C64.8039 49.0282 65.2978 51.3898 64.1206 53.1593C62.9434 54.9287 60.541 55.4359 58.7547 54.2921C58.6903 54.2509 58.6223 54.2064 58.5506 54.1586L57.8068 53.6402L56.8684 52.9476L56.3 52.5122C58.2168 50.7412 59.8651 48.7128 61.1594 46.5279ZM43.0287 31.7354L45.6249 33.899L53.4767 40.3858L55.0662 41.6707C53.95 43.889 52.2724 45.9767 50.2223 47.6737L46.6124 44.7281L40.202 39.3962L43.0287 31.7354Z" stroke="#F3DEE5" stroke-width="2" stroke-linejoin="round"/>
</svg>
