<svg width="89" height="89" viewBox="0 0 89 89" fill="none" xmlns="http://www.w3.org/2000/svg">
<g clip-path="url(#clip0_1_468)">
<path d="M26.9745 39.6578L27.3353 38.719C28.9857 34.4239 32.0358 30.8106 35.9929 28.4628L36.8579 27.9495C39.3042 26.4981 42.4641 27.3046 43.9156 29.7509C44.0629 29.9993 44.1891 30.2596 44.2928 30.5291C45.7366 34.2803 47.962 37.6813 50.8212 40.5064L54.1108 43.7567C52.9656 48.33 49.7693 52.1164 45.4531 54.0129L41.6968 51.3155C38.432 48.971 34.7056 47.3481 30.7653 46.5544C27.9767 45.9927 26.1715 43.2768 26.7332 40.4882C26.7902 40.2051 26.8709 39.9274 26.9745 39.6578ZM36.735 62.7877L42.4461 60.78C43.7083 60.3363 44.3822 58.9629 43.9607 57.6931C43.4706 56.2165 43.5226 54.6137 44.1073 53.1719L44.1964 52.9521L42.4512 51.7359C38.6863 49.1124 34.4221 47.2909 29.9235 46.3848L27.7762 45.9523L27.0452 48.1871C25.8274 51.9102 26.1881 55.9696 28.0433 59.4196C29.7156 62.5297 33.4037 63.9589 36.735 62.7877ZM32.6697 64.2169L34.3912 63.6117L37.8341 62.4014L39.4947 61.8176C40.4193 61.4925 41.4346 61.9622 41.7856 62.8773L44.9641 71.1645C40.315 71.0464 35.9853 68.7728 33.2488 65.0126L32.6697 64.2169ZM61.2979 33.6895L60.2772 39.6565C60.0516 40.9753 58.8108 41.8701 57.4882 41.6678C55.9504 41.4325 54.379 41.7527 53.0558 42.5711L52.8541 42.6959L51.3623 41.1795C48.144 37.9083 45.6327 34.0103 43.9844 29.7276L43.1976 27.6834L45.2781 26.5877C48.7439 24.7623 52.8063 24.4366 56.5187 25.6863C59.8654 26.8129 61.8933 30.2088 61.2979 33.6895ZM62.0245 29.442L61.7168 31.2406L61.1015 34.8378L60.8047 36.5728C60.6394 37.5388 61.2728 38.461 62.2338 38.6534L70.937 40.3959C70.0403 35.8326 67.0722 31.9459 62.906 29.8793L62.0245 29.442Z" stroke="#F3DEE5" stroke-width="2" stroke-linejoin="round"/>
</g>
<defs>
<clipPath id="clip0_1_468">
<rect width="62.4825" height="62.4825" fill="white" transform="translate(0 47.7458) rotate(-49.8311)"/>
</clipPath>
</defs>
</svg>
