<svg width="74" height="74" viewBox="0 0 74 74" fill="none" xmlns="http://www.w3.org/2000/svg">
<path d="M44.9651 19.2538C44.4568 21.6168 42.113 23.1168 39.7302 22.6042C37.3473 22.0916 35.8277 19.7605 36.336 17.3975M44.9651 19.2538C45.4734 16.8908 43.9538 14.5597 41.5709 14.0471C39.1881 13.5345 36.8443 15.0345 36.336 17.3975M44.9651 19.2538C44.932 19.4077 44.8911 19.558 44.8429 19.7043C53.2214 23.4818 58.24 32.4912 56.6565 41.7601L56.7452 41.1945C56.7285 41.432 56.6948 41.6711 56.6433 41.9104C56.0503 44.6673 53.3159 46.4173 50.5359 45.8193M36.336 17.3975C36.3029 17.5515 36.2784 17.7053 36.2656 17.857C27.3236 17.8566 19.247 23.6728 16.6323 32.3636L16.5876 32.5222C16.4999 32.7551 16.4283 32.9974 16.3744 33.2481C15.7813 36.0049 17.5542 38.7245 20.3342 39.3225M50.5359 45.8193C47.8823 45.2485 46.1463 42.7445 46.5098 40.1204L46.5671 39.7745L46.4822 40.1144C45.7344 42.6559 43.1223 44.2246 40.4687 43.6537M50.5359 45.8193C51.2893 45.9814 52.0393 45.971 52.7443 45.8149L46.7489 59.9266L17.9854 53.7391L18.3232 38.4105C18.9016 38.8427 19.5809 39.1605 20.3342 39.3225M50.5359 45.8193C47.756 45.2213 45.9831 42.5017 46.5761 39.7448M20.3342 39.3225C22.9781 39.8913 25.5807 38.3363 26.3393 35.8113L26.4326 35.4433L26.3753 35.7892C26.0118 38.4133 27.7478 40.9173 30.4015 41.4881M20.3342 39.3225C23.1142 39.9205 25.8486 38.1705 26.4416 35.4137C25.8486 38.1705 27.6215 40.8901 30.4015 41.4881M30.4015 41.4881C33.0551 42.059 35.6672 40.4903 36.4149 37.9488L36.4998 37.6089M30.4015 41.4881C33.1712 42.0839 35.8933 40.3482 36.4998 37.6089M36.4998 37.6089L36.4425 37.9548C36.0791 40.5789 37.8151 43.0829 40.4687 43.6537M36.4998 37.6089L36.5089 37.5793C35.9158 40.3361 37.6887 43.0557 40.4687 43.6537M40.4687 43.6537C43.2487 44.2517 45.9831 42.5017 46.5761 39.7448M46.5761 39.7448L46.6201 39.5647C46.6008 39.6246 46.589 39.6847 46.5761 39.7448ZM43.5033 48.7831L41.5571 54.3331M34.8743 46.9268L33.6471 52.6316M26.2452 45.0706L25.7371 50.9301" stroke="#F3DEE5" stroke-width="2" stroke-linejoin="round"/>
</svg>
